<mxfile host="app.diagrams.net" modified="2021-09-30T14:22:33.399Z" agent="5.0 (Macintosh)" etag="j96pV1zx2NkRfOkAobqL" version="15.3.8" type="github">
  <diagram id="PqBIYU05dPy_sP4pm3ZJ" name="Page-1">
    <mxGraphModel dx="1186" dy="651" grid="1" gridSize="10" guides="1" tooltips="1" connect="1" arrows="1" fold="1" page="1" pageScale="1" pageWidth="827" pageHeight="1169" math="0" shadow="0">
      <root>
        <mxCell id="0" />
        <mxCell id="1" parent="0" />
        <mxCell id="xGW7fza09lIFAX_tL9IV-37" value="" style="rounded=0;whiteSpace=wrap;html=1;fillColor=#CCFFE6;" vertex="1" parent="1">
          <mxGeometry x="80" y="150" width="120" height="90" as="geometry" />
        </mxCell>
        <mxCell id="xGW7fza09lIFAX_tL9IV-38" value="Information research" style="swimlane;fontStyle=0;childLayout=stackLayout;horizontal=1;startSize=30;horizontalStack=0;resizeParent=1;resizeParentMax=0;resizeLast=0;collapsible=1;marginBottom=0;" vertex="1" parent="1">
          <mxGeometry x="200" y="150" width="170" height="90" as="geometry" />
        </mxCell>
        <mxCell id="xGW7fza09lIFAX_tL9IV-39" value="User: project owner" style="text;strokeColor=none;fillColor=none;align=left;verticalAlign=middle;spacingLeft=4;spacingRight=4;overflow=hidden;points=[[0,0.5],[1,0.5]];portConstraint=eastwest;rotatable=0;" vertex="1" parent="xGW7fza09lIFAX_tL9IV-38">
          <mxGeometry y="30" width="170" height="30" as="geometry" />
        </mxCell>
        <mxCell id="xGW7fza09lIFAX_tL9IV-40" value="Category: Idea generation" style="text;strokeColor=none;fillColor=none;align=left;verticalAlign=middle;spacingLeft=4;spacingRight=4;overflow=hidden;points=[[0,0.5],[1,0.5]];portConstraint=eastwest;rotatable=0;" vertex="1" parent="xGW7fza09lIFAX_tL9IV-38">
          <mxGeometry y="60" width="170" height="30" as="geometry" />
        </mxCell>
      </root>
    </mxGraphModel>
  </diagram>
</mxfile>
